<svg width="44" height="44" viewBox="0 0 44 44" fill="none" xmlns="http://www.w3.org/2000/svg">
<path fill-rule="evenodd" clip-rule="evenodd" d="M0 1.57143C0 1.15466 0.154525 0.754961 0.429581 0.460261C0.704637 0.165561 1.07769 0 1.46668 0H5.86672C6.19388 9.68361e-05 6.51162 0.117388 6.76941 0.333221C7.02719 0.549053 7.21023 0.851035 7.2894 1.19114L8.47741 6.28571H42.5337C42.7565 6.28578 42.9764 6.34022 43.1766 6.44491C43.3768 6.5496 43.5521 6.70178 43.6892 6.8899C43.8264 7.07802 43.9217 7.29714 43.968 7.53062C44.0143 7.76411 44.0103 8.00583 43.9564 8.23743L39.5564 27.0946C39.4772 27.4347 39.2942 27.7367 39.0364 27.9525C38.7786 28.1683 38.4608 28.2856 38.1337 28.2857H11.7334C11.4063 28.2856 11.0885 28.1683 10.8308 27.9525C10.573 27.7367 10.3899 27.4347 10.3108 27.0946L4.72271 3.14286H1.46668C1.07769 3.14286 0.704637 2.9773 0.429581 2.6826C0.154525 2.3879 0 1.9882 0 1.57143ZM9.21075 9.42857L10.6774 15.7143H14.6668V9.42857H9.21075ZM17.6002 9.42857V15.7143H23.4669V9.42857H17.6002ZM26.4002 9.42857V15.7143H32.267V9.42857H26.4002ZM35.2003 9.42857V15.7143H39.1897L40.6564 9.42857H35.2003ZM38.4564 18.8571H35.2003V25.1429H36.9897L38.4564 18.8571ZM32.267 18.8571H26.4002V25.1429H32.267V18.8571ZM23.4669 18.8571H17.6002V25.1429H23.4669V18.8571ZM14.6668 18.8571H11.4108L12.8775 25.1429H14.6668V18.8571ZM14.6668 34.5714C13.8888 34.5714 13.1427 34.9025 12.5926 35.492C12.0425 36.0814 11.7334 36.8807 11.7334 37.7143C11.7334 38.5478 12.0425 39.3472 12.5926 39.9366C13.1427 40.526 13.8888 40.8571 14.6668 40.8571C15.4448 40.8571 16.1909 40.526 16.741 39.9366C17.2911 39.3472 17.6002 38.5478 17.6002 37.7143C17.6002 36.8807 17.2911 36.0814 16.741 35.492C16.1909 34.9025 15.4448 34.5714 14.6668 34.5714ZM8.80008 37.7143C8.80008 36.0472 9.41818 34.4484 10.5184 33.2696C11.6186 32.0908 13.1109 31.4286 14.6668 31.4286C16.2228 31.4286 17.715 32.0908 18.8152 33.2696C19.9154 34.4484 20.5335 36.0472 20.5335 37.7143C20.5335 39.3814 19.9154 40.9802 18.8152 42.159C17.715 43.3378 16.2228 44 14.6668 44C13.1109 44 11.6186 43.3378 10.5184 42.159C9.41818 40.9802 8.80008 39.3814 8.80008 37.7143ZM35.2003 34.5714C34.4224 34.5714 33.6762 34.9025 33.1261 35.492C32.576 36.0814 32.267 36.8807 32.267 37.7143C32.267 38.5478 32.576 39.3472 33.1261 39.9366C33.6762 40.526 34.4224 40.8571 35.2003 40.8571C35.9783 40.8571 36.7244 40.526 37.2745 39.9366C37.8246 39.3472 38.1337 38.5478 38.1337 37.7143C38.1337 36.8807 37.8246 36.0814 37.2745 35.492C36.7244 34.9025 35.9783 34.5714 35.2003 34.5714ZM29.3336 37.7143C29.3336 36.0472 29.9517 34.4484 31.0519 33.2696C32.1522 32.0908 33.6444 31.4286 35.2003 31.4286C36.7563 31.4286 38.2485 32.0908 39.3487 33.2696C40.4489 34.4484 41.067 36.0472 41.067 37.7143C41.067 39.3814 40.4489 40.9802 39.3487 42.159C38.2485 43.3378 36.7563 44 35.2003 44C33.6444 44 32.1522 43.3378 31.0519 42.159C29.9517 40.9802 29.3336 39.3814 29.3336 37.7143Z" fill="#FB4242"/>
</svg>
